<?xml version="1.0" standalone="no"?><!DOCTYPE svg PUBLIC "-//W3C//DTD SVG 1.1//EN" "http://www.w3.org/Graphics/SVG/1.1/DTD/svg11.dtd"><svg t="1714031265227" class="icon" viewBox="0 0 1024 1024" version="1.1" xmlns="http://www.w3.org/2000/svg" p-id="36405" xmlns:xlink="http://www.w3.org/1999/xlink" width="200" height="200"><path d="M463.72266667 101.01333333c13.29066667-10.60266667 28.52266667-20.94933333 46.12266666-21.52533333 13.44 0.17066667 25.728 6.74133333 36.52266667 14.208 24.02133333 16.93866667 42.92266667 39.82933333 60.82133333 62.848 10.73066667 14.464 20.90666667 29.376 30.464 44.65066667 21.80266667 34.88 40.704 71.59466667 56.192 109.71733333 10.496 26.304 19.968 53.568 22.29333334 81.984 0.66133333 11.712 0.17066667 25.89866667-9.984 33.74933333-11.11466667 8.21333333-24.832 11.75466667-37.97333334 15.33866667-33.792 7.872-68.48 11.648-103.104 13.14133333-14.82666667-14.016-34.83733333-22.48533333-55.33866666-22.42133333 20.43733333-23.08266667 40.21333333-46.848 57.408-72.46933333 9.28-14.29333333 18.24-29.248 22.44266666-45.90933334 3.11466667-10.96533333-4.37333333-20.992-11.49866666-28.43733333-21.07733333-21.184-48.78933333-33.57866667-75.43466667-46.08-38.57066667-16.512-78.656-29.632-119.59466667-38.86933333 6.592-12.62933333 15.14666667-24.08533333 23.296-35.712 16.91733333-23.21066667 35.22133333-45.73866667 57.36533334-64.21333334z" fill="#FD810C" p-id="36406"></path><path d="M212.13866667 199.38133333c15.06133333-9.152 33.06666667-11.584 50.368-12.45866666 40.64-1.77066667 80.98133333 5.52533333 120.55466666 14.016 40.93866667 9.23733333 81.024 22.35733333 119.59466667 38.86933333 26.64533333 12.50133333 54.35733333 24.896 75.43466667 46.08 7.12533333 7.44533333 14.61333333 17.472 11.49866666 28.43733333-4.20266667 16.66133333-13.16266667 31.616-22.44266666 45.90933334-17.19466667 25.62133333-36.97066667 49.38666667-57.408 72.46933333-20.24533333-0.02133333-39.89333333 8.46933333-54.69866667 22.10133333-1.62133333-24.27733333-2.83733333-48.68266667-7.31733333-72.66133333-3.648-20.97066667-7.33866667-42.47466667-17.17333334-61.58933333-3.66933333-7.488-10.00533333-14.10133333-18.45333333-15.744-18.88-3.88266667-38.08 1.25866667-56.36266667 5.888-54.86933333 15.70133333-105.96266667 42.19733333-154.64533333 71.57333333-6.05866667-23.85066667-10.00533333-48.23466667-12.71466667-72.68266667-2.24-25.344-3.392-51.264 2.368-76.24533333 3.22133333-13.12 9.36533333-26.752 21.39733334-33.96266667z" fill="#DF4D48" p-id="36407"></path><path d="M637.65333333 201.19466667c42.688-8.66133333 86.272-17.13066667 130.02666667-12.864 16.42666667 1.984 34.112 5.376 46.528 17.19466666 11.84 12.30933333 15.44533333 29.86666667 17.51466667 46.25066667 4.07466667 44.07466667-3.904 88.08533333-13.12 131.02933333-9.6 39.168-21.48266667 77.888-37.12 115.11466667-11.62666667 26.176-23.97866667 52.544-42.32533334 74.79466667-7.04 8.10666667-15.872 16.192-26.98666666 17.45066666-10.176 0.064-19.648-4.544-28.62933334-8.832-35.11466667-18.13333333-64.64-44.8-94.912-69.78133333-0.384-20.864-8.68266667-41.64266667-23.552-56.42666667 34.624-1.49333333 69.312-5.26933333 103.104-13.14133333 13.14133333-3.584 26.85866667-7.12533333 37.97333334-15.33866667 10.15466667-7.85066667 10.64533333-22.03733333 9.984-33.74933333-2.32533333-28.416-11.79733333-55.68-22.29333334-81.984-15.488-38.12266667-34.38933333-74.83733333-56.192-109.71733333z" fill="#FFE124" p-id="36408"></path><path d="M355.73333333 310.69866667c18.28266667-4.62933333 37.48266667-9.77066667 56.36266667-5.888 8.448 1.64266667 14.784 8.256 18.45333333 15.744 9.83466667 19.11466667 13.52533333 40.61866667 17.17333334 61.58933333 4.48 23.97866667 5.696 48.384 7.31733333 72.66133333-13.52533333 14.63466667-22.08 33.57866667-23.89333333 53.44-24.896-21.03466667-49.70666667-42.41066667-77.41866667-59.73333333-12.90666667-7.95733333-26.45333333-15.85066667-41.64266667-18.28266667-10.112-1.64266667-19.09333333 4.97066667-25.94133333 11.62666667-17.23733333 17.25866667-28.45866667 39.33866667-39.08266667 61.01333333-20.096 43.264-34.944 88.87466667-45.888 135.25333334-31.744-20.352-63.31733333-41.87733333-89.06666666-69.696-13.97333333-13.97333333-26.96533333-30.272-31.72266667-49.81333334-4.032-20.50133333 8.23466667-39.552 20.544-54.784 28.224-32.87466667 63.744-58.51733333 100.16-81.55733333 48.68266667-29.376 99.776-55.872 154.64533333-71.57333333z" fill="#FF9ED0" p-id="36409"></path><path d="M818.60266667 382.80533333a114.176 114.176 0 0 1 14.48533333 8.46933334c25.664 17.23733333 50.85866667 35.60533333 72.448 57.856 13.84533333 13.80266667 26.60266667 29.52533333 33.10933333 48.21333333 4.26666667 11.75466667 1.28 24.81066667-4.352 35.584-7.70133333 16.32-20.096 29.76-32.93866666 42.176-24.896 24.61866667-53.93066667 44.544-83.24266667 63.46666667-42.944 25.89866667-87.78666667 49.10933333-135.27466667 65.45066666-22.144 6.89066667-45.03466667 13.86666667-68.50133333 12.39466667-8.064-0.384-16.46933333-3.49866667-21.22666667-10.32533333-7.91466667-11.24266667-11.79733333-24.74666667-15.232-37.888-7.70133333-33.13066667-11.392-67.09333333-12.71466666-101.03466667 14.336-14.912 23.01866667-34.88 23.46666666-55.616 30.272 24.98133333 59.79733333 51.648 94.912 69.78133333 8.98133333 4.288 18.45333333 8.896 28.62933334 8.832 11.11466667-1.25866667 19.94666667-9.344 26.98666666-17.45066666 18.34666667-22.25066667 30.69866667-48.61866667 42.32533334-74.79466667 15.63733333-37.22666667 27.52-75.94666667 37.12-115.11466667z" fill="#B3E32B" p-id="36410"></path><path d="M286.144 441.856c6.848-6.656 15.82933333-13.26933333 25.94133333-11.62666667 15.18933333 2.432 28.736 10.32533333 41.64266667 18.28266667 27.712 17.32266667 52.52266667 38.69866667 77.41866667 59.73333333 0.08533333 20.71466667 7.44533333 41.32266667 21.41866666 56.72533334-29.07733333 1.92-58.176 4.62933333-86.82666666 10.06933333-16.36266667 3.66933333-33.19466667 7.31733333-47.78666667 15.936-7.89333333 4.45866667-13.22666667 12.736-14.016 21.78133333-1.68533333 17.42933333 2.176 34.85866667 6.74133333 51.60533334 15.89333333 54.74133333 42.048 105.94133333 71.50933334 154.51733333-43.328 10.32533333-88.08533333 17.04533333-132.672 13.14133333-16.68266667-2.24-34.90133333-6.4-46.29333334-19.84-9.49333333-12.032-12.84266667-27.584-14.72-42.45333333-4.43733333-44.24533333 3.49866667-88.46933333 12.672-131.60533333 10.944-46.37866667 25.792-91.98933333 45.888-135.25333334 10.624-21.67466667 21.84533333-43.75466667 39.08266667-61.01333333z" fill="#6682EA" p-id="36411"></path><path d="M365.73866667 575.04c28.65066667-5.44 57.74933333-8.14933333 86.82666666-10.06933333 14.144 14.592 33.57866667 23.50933333 53.84533334 24.96-23.744 27.73333333-47.616 55.78666667-65.55733334 87.76533333-5.22666667 10.21866667-10.96533333 20.82133333-11.54133333 32.53333333-0.128 10.47466667 7.33866667 18.90133333 14.37866667 25.81333334 15.168 14.05866667 33.408 24.32 51.84 33.49333333 45.35466667 22.03733333 93.67466667 37.312 142.592 49.13066667-23.06133333 35.88266667-47.89333333 71.44533333-80.46933334 99.43466666-11.73333333 9.664-24.87466667 18.58133333-39.936 21.888-12.352 2.64533333-24.78933333-1.96266667-35.43466666-7.95733333-14.08-8.128-26.28266667-19.072-37.58933334-30.63466667-23.95733333-24.98133333-44.096-53.29066667-62.50666666-82.51733333-29.46133333-48.576-55.616-99.776-71.50933334-154.51733333-4.56533333-16.74666667-8.42666667-34.176-6.74133333-51.60533334 0.78933333-9.04533333 6.12266667-17.32266667 14.016-21.78133333 14.592-8.61866667 31.424-12.26666667 47.78666667-15.936z" fill="#13CBE6" p-id="36412"></path><path d="M506.41066667 589.93066667c21.632 0.46933333 43.2-7.68 58.752-22.76266667 1.32266667 33.94133333 5.01333333 67.904 12.71466666 101.03466667 3.43466667 13.14133333 7.31733333 26.64533333 15.232 37.888 4.75733333 6.82666667 13.16266667 9.94133333 21.22666667 10.32533333 23.46666667 1.472 46.35733333-5.504 68.50133333-12.39466667 47.488-16.34133333 92.33066667-39.552 135.27466667-65.45066666 9.25866667 38.08 15.168 77.35466667 13.97333333 116.62933333-1.00266667 17.68533333-3.072 36.224-12.52266666 51.62666667-5.93066667 9.96266667-16.49066667 16.128-27.28533334 19.54133333-20.90666667 6.528-43.11466667 6.61333333-64.78933333 5.71733333-30.12266667-1.74933333-59.92533333-6.95466667-89.36533333-13.41866666-48.91733333-11.81866667-97.23733333-27.09333333-142.592-49.13066667-18.432-9.17333333-36.672-19.43466667-51.84-33.49333333-7.04-6.912-14.50666667-15.33866667-14.37866667-25.81333334 0.576-11.712 6.31466667-22.31466667 11.54133333-32.53333333 17.94133333-31.97866667 41.81333333-60.032 65.55733334-87.76533333z" fill="#2CB43B" p-id="36413"></path></svg>